<svg data-v-423bf9ae="" xmlns="http://www.w3.org/2000/svg" viewBox="0 0 278 90" class="iconLeftSlogan"><!----><!----><!----><g data-v-423bf9ae="" id="501f9f77-5885-4b1b-b5cb-21faf5ec553c" fill="white" transform="matrix(5.489478346271195,0,0,5.489478346271195,64.88076096332739,-10.97895669254239)"><path d="M9.49 7.45L9.49 7.45L9.49 7.45Q8.47 6.96 7.66 6.71L7.66 6.71L7.66 6.71Q5.92 8.81 5.61 10.79L5.61 10.79L5.61 10.79Q5.56 11.11 5.56 11.43L5.56 11.43L5.56 11.43Q5.56 11.76 5.62 12.09L5.62 12.09L5.62 12.09Q4.94 12.59 4.21 12.84L4.21 12.84L4.21 12.84Q3.96 12.93 3.80 12.93L3.80 12.93L3.80 12.93Q3.64 12.93 3.48 12.84L3.48 12.84L3.48 12.84Q3.31 12.76 3.17 12.59L3.17 12.59L3.17 12.59Q2.84 12.21 2.84 11.57L2.84 11.57L2.84 11.57Q2.84 10.94 3.07 10.29L3.07 10.29L3.07 10.29Q3.30 9.64 3.71 8.98L3.71 8.98L3.71 8.98Q4.46 7.72 5.89 6.37L5.89 6.37L5.89 6.37Q5.33 6.34 4.78 6.34L4.78 6.34L4.78 6.34Q4.22 6.34 3.62 6.48L3.62 6.48L3.62 6.48Q2.35 6.78 2.11 7.63L2.11 7.63L2.11 7.63Q2.06 7.78 2.06 8.02L2.06 8.02L2.06 8.02Q2.06 8.26 2.22 8.65L2.22 8.65L2.22 8.65Q2.08 8.90 1.59 8.85L1.59 8.85L1.59 8.85Q1.07 8.80 0.77 8.57L0.77 8.57L0.77 8.57Q0.22 8.13 0.22 7.61L0.22 7.61L0.22 7.61Q0.22 6.58 1.65 5.96L1.65 5.96L1.65 5.96Q2.99 5.38 4.90 5.38L4.90 5.38L4.90 5.38Q5.76 5.38 6.77 5.60L6.77 5.60L6.77 5.60Q9.34 3.47 12.03 2.47L12.03 2.47L12.03 2.47Q13.33 2.00 14.33 2.00L14.33 2.00L14.33 2.00Q14.79 2.00 15.02 2.20L15.02 2.20L15.02 2.20Q15.25 2.41 15.25 2.73L15.25 2.73L15.25 2.73Q15.25 3.05 15.08 3.52L15.08 3.52L15.08 3.52Q14.92 3.99 14.66 4.57L14.66 4.57L14.66 4.57Q14.41 5.15 14.12 5.81L14.12 5.81L14.12 5.81Q13.83 6.47 13.58 7.16L13.58 7.16L13.58 7.16Q12.99 8.77 12.99 9.88L12.99 9.88L12.99 9.88Q12.99 10.70 13.71 10.70L13.71 10.70L13.71 10.70Q13.91 10.70 14.16 10.60L14.16 10.60L14.16 10.60Q14.29 10.68 14.37 10.83L14.37 10.83L14.37 10.83Q14.45 10.98 14.45 11.09L14.45 11.09L14.45 11.09Q14.45 11.20 14.37 11.40L14.37 11.40L14.37 11.40Q14.28 11.61 14.12 11.82L14.12 11.82L14.12 11.82Q13.97 12.02 13.74 12.22L13.74 12.22L13.74 12.22Q13.52 12.41 13.25 12.56L13.25 12.56L13.25 12.56Q12.26 13.13 11.09 12.73L11.09 12.73L11.09 12.73Q10.13 12.41 9.72 11.40L9.72 11.40L9.72 11.40Q9.52 10.88 9.52 10.22L9.52 10.22L9.52 10.22Q9.52 9.56 9.72 8.97L9.72 8.97L9.72 8.97Q9.93 8.39 10.26 7.82L10.26 7.82L10.26 7.82Q10.59 7.26 11.02 6.73L11.02 6.73L11.02 6.73Q11.44 6.21 11.89 5.73L11.89 5.73L11.89 5.73Q12.34 5.24 12.77 4.82L12.77 4.82L12.77 4.82Q13.19 4.40 13.52 4.03L13.52 4.03L13.52 4.03Q14.27 3.23 14.27 2.93L14.27 2.93L14.27 2.93Q14.27 2.78 13.98 2.78L13.98 2.78L13.98 2.78Q12.74 2.78 11.14 3.71L11.14 3.71L11.14 3.71Q9.60 4.61 8.26 6.04L8.26 6.04L8.26 6.04Q9.34 6.43 9.58 6.74L9.58 6.74L9.58 6.74Q9.84 7.10 9.49 7.45ZM16.87 11.87L16.87 11.87L16.87 11.87Q15.80 12.66 15.43 12.66L15.43 12.66L15.43 12.66Q15.04 12.66 14.81 12.22L14.81 12.22L14.81 12.22Q14.62 11.84 14.62 11.37L14.62 11.37L14.62 11.37Q14.62 10.90 14.76 10.48L14.76 10.48L14.76 10.48Q14.90 10.05 15.13 9.71L15.13 9.71L15.13 9.71Q15.64 8.93 16.21 8.93L16.21 8.93L16.21 8.93Q16.43 8.93 16.90 9.19L16.90 9.19L16.90 9.19Q17.38 9.45 17.62 9.57L17.62 9.57L17.62 9.57Q19.87 8.22 20.11 7.40L20.11 7.40L20.11 7.40Q19.95 7.36 19.72 7.36L19.72 7.36L19.72 7.36Q19.48 7.36 19.25 7.38L19.25 7.38L19.25 7.38Q19.02 7.39 18.73 7.42L18.73 7.42L18.73 7.42Q18.43 7.46 18.13 7.51L18.13 7.51L18.13 7.51Q17.48 7.62 17.06 7.75L17.06 7.75L17.06 7.75Q16.95 7.60 16.95 7.34L16.95 7.34L16.95 7.34Q16.95 6.85 17.14 6.80L17.14 6.80L17.14 6.80Q18.07 6.58 18.89 6.58L18.89 6.58L18.89 6.58Q20.77 6.58 20.92 6.88L20.92 6.88L20.92 6.88Q21.01 7.06 21.01 7.33L21.01 7.33L21.01 7.33Q21.01 8.16 18.87 10.19L18.87 10.19L18.87 10.19Q19.60 10.49 19.96 10.49L19.96 10.49L19.96 10.49Q20.32 10.49 20.61 10.37L20.61 10.37L20.61 10.37Q20.90 10.24 21.18 10.04L21.18 10.04L21.18 10.04Q21.73 9.62 22.15 9.00L22.15 9.00L22.15 9.00Q22.33 8.98 22.39 9.06L22.39 9.06L22.39 9.06Q22.46 9.15 22.46 9.24L22.46 9.24L22.46 9.24Q22.46 9.34 22.37 9.56L22.37 9.56L22.37 9.56Q22.28 9.78 22.08 10.11L22.08 10.11L22.08 10.11Q21.89 10.44 21.62 10.79L21.62 10.79L21.62 10.79Q21.36 11.14 21.03 11.47L21.03 11.47L21.03 11.47Q20.70 11.81 20.32 12.07L20.32 12.07L20.32 12.07Q19.50 12.66 18.67 12.66L18.67 12.66L18.67 12.66Q17.83 12.66 16.87 11.87ZM25.31 11.57L25.31 11.57L25.31 11.57Q24.38 12.66 23.03 12.66L23.03 12.66L23.03 12.66Q22.18 12.66 21.66 12.15L21.66 12.15L21.66 12.15Q21.16 11.64 21.16 10.81L21.16 10.81L21.16 10.81Q21.16 9.77 21.98 8.78L21.98 8.78L21.98 8.78Q22.77 7.83 24.06 7.23L24.06 7.23L24.06 7.23Q25.39 6.60 26.81 6.60L26.81 6.60L26.81 6.60Q27.35 6.60 27.58 6.77L27.58 6.77L27.58 6.77Q27.77 6.56 27.91 6.52L27.91 6.52L27.91 6.52Q28.06 6.48 28.14 6.48L28.14 6.48L28.14 6.48Q28.40 6.48 28.70 6.56L28.70 6.56L28.70 6.56Q28.67 6.64 28.58 6.86L28.58 6.86L28.58 6.86Q28.49 7.08 28.38 7.37L28.38 7.37L28.38 7.37Q28.27 7.66 28.15 8.01L28.15 8.01L28.15 8.01Q27.71 9.26 27.71 9.87L27.71 9.87L27.71 9.87Q27.71 10.49 28.10 10.49L28.10 10.49L28.10 10.49Q28.60 10.49 29.22 10.04L29.22 10.04L29.22 10.04Q29.78 9.62 30.19 9.00L30.19 9.00L30.19 9.00Q30.50 8.98 30.50 9.25L30.50 9.25L30.50 9.25Q30.50 9.48 30.22 9.96L30.22 9.96L30.22 9.96Q29.93 10.44 29.67 10.79L29.67 10.79L29.67 10.79Q29.40 11.14 29.07 11.47L29.07 11.47L29.07 11.47Q28.75 11.81 28.38 12.07L28.38 12.07L28.38 12.07Q27.55 12.66 26.76 12.66L26.76 12.66L26.76 12.66Q25.76 12.66 25.42 12.06L25.42 12.06L25.42 12.06Q25.31 11.87 25.31 11.73L25.31 11.73L25.31 11.73Q25.31 11.59 25.31 11.57ZM23.36 9.70L23.36 9.70L23.36 9.70Q23.36 10.49 24.02 10.49L24.02 10.49L24.02 10.49Q24.75 10.49 25.74 9.31L25.74 9.31L25.74 9.31Q26.27 8.68 26.66 8.11L26.66 8.11L26.66 8.11Q27.06 7.53 27.26 7.23L27.26 7.23L27.26 7.23Q25.55 7.25 24.42 8.01L24.42 8.01L24.42 8.01Q23.36 8.74 23.36 9.70ZM36.28 10.49L36.28 10.49L36.28 10.49Q36.78 10.49 37.41 10.04L37.41 10.04L37.41 10.04Q37.96 9.62 38.38 9.00L38.38 9.00L38.38 9.00Q38.69 8.97 38.68 9.26L38.68 9.26L38.68 9.26Q38.67 9.50 38.39 9.97L38.39 9.97L38.39 9.97Q38.12 10.44 37.85 10.79L37.85 10.79L37.85 10.79Q37.58 11.14 37.26 11.47L37.26 11.47L37.26 11.47Q36.93 11.81 36.56 12.07L36.56 12.07L36.56 12.07Q35.73 12.66 34.95 12.66L34.95 12.66L34.95 12.66Q33.94 12.66 33.61 12.06L33.61 12.06L33.61 12.06Q33.49 11.85 33.50 11.57L33.50 11.57L33.50 11.57Q32.92 12.27 31.84 12.55L31.84 12.55L31.84 12.55Q31.48 12.65 31.06 12.65L31.06 12.65L31.06 12.65Q30.65 12.65 30.30 12.51L30.30 12.51L30.30 12.51Q29.96 12.38 29.71 12.14L29.71 12.14L29.71 12.14Q29.20 11.64 29.20 10.81L29.20 10.81L29.20 10.81Q29.20 9.86 30.00 8.87L30.00 8.87L30.00 8.87Q30.79 7.89 32.02 7.26L32.02 7.26L32.02 7.26Q33.33 6.60 34.70 6.60L34.70 6.60L34.70 6.60Q35.31 6.60 35.24 7.14L35.24 7.14L35.24 7.14Q33.67 7.14 32.50 7.98L32.50 7.98L32.50 7.98Q31.99 8.36 31.69 8.81L31.69 8.81L31.69 8.81Q31.40 9.26 31.40 9.69L31.40 9.69L31.40 9.69Q31.40 10.48 32.07 10.48L32.07 10.48L32.07 10.48Q33.04 10.48 34.02 9.28L34.02 9.28L34.02 9.28Q34.36 8.85 34.81 8.09L34.81 8.09L34.81 8.09Q35.27 7.33 35.56 6.85L35.56 6.85L35.56 6.85Q35.85 6.36 36.15 5.86L36.15 5.86L36.15 5.86Q36.46 5.36 36.74 4.90L36.74 4.90L36.74 4.90Q37.43 3.77 37.59 3.55L37.59 3.55L37.59 3.55Q37.84 3.21 38.17 3.21L38.17 3.21L38.17 3.21Q38.56 3.21 38.74 3.49L38.74 3.49L38.74 3.49Q37.99 4.67 37.34 6.00L37.34 6.00L37.34 6.00Q36.69 7.32 36.44 7.93L36.44 7.93L36.44 7.93Q35.86 9.31 35.86 9.90L35.86 9.90L35.86 9.90Q35.86 10.49 36.28 10.49Z"></path></g><!----><g data-v-423bf9ae="" id="b6962859-7364-44a4-be8c-3219e96525ae" transform="matrix(2.8125,0,0,2.8125,-21.194407999515533,0)" stroke="none" fill="white"><path d="M18.396 26.495L7.807 15.905 18.432 5.28l.707.707-9.918 9.918 9.882 9.883z"></path><path d="M23.194 1v4.194H19V1h4.194m1-1H18v6.194h6.194V0zM23.194 26.806V31H19v-4.194h4.194m1-1H18V32h6.194v-6.194z"></path></g><!----><g data-v-423bf9ae="" id="5780d1a2-4b93-4e8f-9034-75a9ae2d1d2b" fill="white" transform="matrix(0.6941760639920981,0,0,0.6941760639920981,64.57513685679884,56.716547978579676)"><path d="M2.35 14.45L2.35 14.45L2.35 14.45Q2.56 13.99 2.86 13.26L2.86 13.26L2.86 13.26Q3.15 12.53 3.47 11.68L3.47 11.68L3.47 11.68Q3.79 10.84 4.13 9.95L4.13 9.95L4.13 9.95Q4.47 9.06 4.76 8.26L4.76 8.26L4.76 8.26Q5.05 7.46 5.27 6.83L5.27 6.83L5.27 6.83Q5.49 6.20 5.59 5.87L5.59 5.87L5.59 5.87Q4.70 6.23 4.07 6.97L4.07 6.97L4.07 6.97Q3.44 7.71 3.12 8.83L3.12 8.83L3.12 8.83Q2.80 8.72 2.53 8.43L2.53 8.43L2.53 8.43Q2.27 8.15 2.18 7.71L2.18 7.71L2.18 7.71Q2.32 7.07 2.71 6.54L2.71 6.54L2.71 6.54Q3.09 6.01 3.68 5.63L3.68 5.63L3.68 5.63Q4.27 5.25 5.04 5.05L5.04 5.05L5.04 5.05Q5.81 4.84 6.69 4.84L6.69 4.84L6.69 4.84Q7.81 4.84 8.75 5.17L8.75 5.17L8.75 5.17Q9.69 5.50 10.36 6.09L10.36 6.09L10.36 6.09Q11.03 6.68 11.41 7.50L11.41 7.50L11.41 7.50Q11.79 8.33 11.79 9.34L11.79 9.34L11.79 9.34Q11.79 10.71 11.28 11.96L11.28 11.96L11.28 11.96Q10.78 13.20 9.92 14.15L9.92 14.15L9.92 14.15Q9.06 15.11 7.92 15.67L7.92 15.67L7.92 15.67Q6.79 16.24 5.54 16.24L5.54 16.24L5.54 16.24Q4.40 16.24 3.58 15.79L3.58 15.79L3.58 15.79Q2.76 15.33 2.35 14.45ZM7.29 5.54L7.29 5.54L7.29 5.54Q6.59 5.54 5.96 5.74L5.96 5.74L5.96 5.74Q6.58 5.96 6.99 6.21L6.99 6.21L6.99 6.21Q7.39 6.45 7.55 6.59L7.55 6.59L7.55 6.59Q7.43 6.75 7.22 7.14L7.22 7.14L7.22 7.14Q7 7.53 6.71 8.09L6.71 8.09L6.71 8.09Q6.43 8.65 6.10 9.32L6.10 9.32L6.10 9.32Q5.78 9.98 5.47 10.68L5.47 10.68L5.47 10.68Q4.68 12.46 4.32 13.48L4.32 13.48L4.32 13.48Q3.96 14.50 3.96 14.90L3.96 14.90L3.96 14.90Q4.16 14.97 4.44 14.99L4.44 14.99L4.44 14.99Q4.72 15.02 5.04 15.02L5.04 15.02L5.04 15.02Q6.17 15.02 7.19 14.50L7.19 14.50L7.19 14.50Q8.20 13.97 8.97 13.09L8.97 13.09L8.97 13.09Q9.73 12.21 10.17 11.04L10.17 11.04L10.17 11.04Q10.61 9.87 10.61 8.58L10.61 8.58L10.61 8.58Q10.61 7.14 9.72 6.34L9.72 6.34L9.72 6.34Q8.82 5.54 7.29 5.54ZM24.56 4.83L24.56 4.83L24.56 4.83Q25.09 4.83 25.66 5.03L25.66 5.03L25.66 5.03Q26.24 5.22 26.67 5.53L26.67 5.53L26.67 5.53Q26.53 6.24 26.41 6.82L26.41 6.82L26.41 6.82Q26.29 7.39 26.19 7.86L26.19 7.86L26.19 7.86Q26.10 8.33 26.00 8.71L26.00 8.71L26.00 8.71Q25.91 9.10 25.83 9.44L25.83 9.44L25.83 9.44Q25.49 10.70 25.14 11.71L25.14 11.71L25.14 11.71Q24.78 12.73 24.38 13.54L24.38 13.54L24.38 13.54Q23.98 14.35 23.54 14.98L23.54 14.98L23.54 14.98Q23.10 15.61 22.60 16.09L22.60 16.09L22.60 16.09Q22.11 16.55 21.62 16.84L21.62 16.84L21.62 16.84Q21.13 17.14 20.71 17.22L20.71 17.22L20.71 17.22Q20.15 17.22 19.67 17.09L19.67 17.09L19.67 17.09Q19.19 16.97 18.85 16.75L18.85 16.75L18.85 16.75Q18.51 16.53 18.32 16.23L18.32 16.23L18.32 16.23Q18.13 15.93 18.13 15.57L18.13 15.57L18.13 15.57Q18.13 15.18 18.33 14.58L18.33 14.58L18.33 14.58Q18.52 13.99 18.93 13.17L18.93 13.17L18.93 13.17Q19.10 13.19 19.32 13.26L19.32 13.26L19.32 13.26Q19.54 13.33 19.77 13.43L19.77 13.43L19.77 13.43Q19.99 13.52 20.17 13.64L20.17 13.64L20.17 13.64Q20.36 13.76 20.44 13.87L20.44 13.87L20.44 13.87Q19.99 14.34 19.71 14.89L19.71 14.89L19.71 14.89Q19.43 15.44 19.43 15.85L19.43 15.85L19.43 15.85Q19.43 16.09 19.52 16.27L19.52 16.27L19.52 16.27Q19.61 16.46 19.84 16.62L19.84 16.62L19.84 16.62Q20.69 16.30 21.50 15.42L21.50 15.42L21.50 15.42Q22.32 14.55 22.95 13.24L22.95 13.24L22.95 13.24Q23.32 12.47 23.63 11.48L23.63 11.48L23.63 11.48Q23.94 10.49 24.16 9.48L24.16 9.48L24.16 9.48Q24.37 8.48 24.49 7.57L24.49 7.57L24.49 7.57Q24.61 6.65 24.61 6.02L24.61 6.02L24.61 6.02Q24.61 5.92 24.61 5.75L24.61 5.75L24.61 5.75Q24.60 5.57 24.59 5.38L24.59 5.38L24.59 5.38Q24.58 5.19 24.57 5.04L24.57 5.04L24.57 5.04Q24.56 4.89 24.56 4.83ZM34.10 16.24L34.10 16.24L34.10 16.24Q33.43 16.04 33.17 15.85L33.17 15.85L33.17 15.85Q32.91 15.65 32.91 15.36L32.91 15.36L32.91 15.36Q32.91 15.13 33.04 14.73L33.04 14.73L33.04 14.73Q33.17 14.32 33.41 13.77L33.41 13.77L33.41 13.77Q33.66 13.22 34.00 12.54L34.00 12.54L34.00 12.54Q34.34 11.87 34.78 11.10L34.78 11.10L34.78 11.10Q34.41 11.09 34.13 11.08L34.13 11.08L34.13 11.08Q33.84 11.07 33.66 11.07L33.66 11.07L33.66 11.07Q33.74 10.86 34.13 10.71L34.13 10.71L34.13 10.71Q34.52 10.56 35.17 10.44L35.17 10.44L35.17 10.44Q35.71 9.53 36.34 8.71L36.34 8.71L36.34 8.71Q36.96 7.88 37.59 7.19L37.59 7.19L37.59 7.19Q38.22 6.50 38.85 5.97L38.85 5.97L38.85 5.97Q39.48 5.45 40.05 5.14L40.05 5.14L40.05 5.14Q40.07 5.04 40.08 4.97L40.08 4.97L40.08 4.97Q40.08 4.90 40.08 4.87L40.08 4.87L40.08 4.87Q40.28 4.87 40.61 4.97L40.61 4.97L40.61 4.97Q40.94 5.07 41.25 5.21L41.25 5.21L41.25 5.21Q41.57 5.35 41.81 5.49L41.81 5.49L41.81 5.49Q42.06 5.64 42.08 5.74L42.08 5.74L42.08 5.74Q41.62 6.55 41.17 8.17L41.17 8.17L41.17 8.17Q40.73 9.79 40.43 12.04L40.43 12.04L40.43 12.04Q40.36 12.60 40.31 13.31L40.31 13.31L40.31 13.31Q40.26 14.03 40.26 14.91L40.26 14.91L40.26 14.91Q40.26 15.22 40.26 15.54L40.26 15.54L40.26 15.54Q40.26 15.86 40.29 16.21L40.29 16.21L40.29 16.21Q40.26 16.23 40.24 16.23L40.24 16.23L40.24 16.23Q40.21 16.23 40.12 16.23L40.12 16.23L40.12 16.23Q39.93 16.23 39.67 16.16L39.67 16.16L39.67 16.16Q39.41 16.10 39.17 16.01L39.17 16.01L39.17 16.01Q38.92 15.92 38.75 15.81L38.75 15.81L38.75 15.81Q38.57 15.69 38.53 15.61L38.53 15.61L38.53 15.61Q38.51 15.43 38.51 15.25L38.51 15.25L38.51 15.25Q38.51 15.08 38.51 14.88L38.51 14.88L38.51 14.88Q38.51 14.01 38.58 13.12L38.58 13.12L38.58 13.12Q38.64 12.22 38.79 11.27L38.79 11.27L38.79 11.27Q38.60 11.26 38.28 11.23L38.28 11.23L38.28 11.23Q37.95 11.21 37.55 11.20L37.55 11.20L37.55 11.20Q37.16 11.19 36.70 11.16L36.70 11.16L36.70 11.16Q36.25 11.14 35.81 11.13L35.81 11.13L35.81 11.13Q35.48 11.76 35.18 12.38L35.18 12.38L35.18 12.38Q34.89 13.01 34.68 13.64L34.68 13.64L34.68 13.64Q34.44 14.31 34.29 14.98L34.29 14.98L34.29 14.98Q34.15 15.65 34.10 16.24ZM39.51 7.83L39.51 7.83L39.51 7.83Q39.56 7.63 39.64 7.29L39.64 7.29L39.64 7.29Q39.72 6.94 39.79 6.57L39.79 6.57L39.79 6.57Q39.44 6.69 39.01 7.03L39.01 7.03L39.01 7.03Q38.58 7.36 38.13 7.86L38.13 7.86L38.13 7.86Q37.67 8.36 37.21 8.98L37.21 8.98L37.21 8.98Q36.74 9.60 36.30 10.30L36.30 10.30L36.30 10.30Q37.48 10.21 38.98 10.18L38.98 10.18L38.98 10.18Q39.09 9.59 39.22 9.01L39.22 9.01L39.22 9.01Q39.35 8.43 39.51 7.83ZM50.71 16.24L50.71 16.24L50.71 16.24Q49.91 16.00 49.63 15.79L49.63 15.79L49.63 15.79Q49.35 15.57 49.35 15.19L49.35 15.19L49.35 15.19Q49.35 14.77 49.55 14.01L49.55 14.01L49.55 14.01Q49.74 13.24 50.06 12.31L50.06 12.31L50.06 12.31Q50.37 11.37 50.78 10.35L50.78 10.35L50.78 10.35Q51.18 9.32 51.60 8.39L51.60 8.39L51.60 8.39Q52.02 7.45 52.42 6.67L52.42 6.67L52.42 6.67Q52.82 5.89 53.13 5.46L53.13 5.46L53.03 4.87L53.03 4.87Q53.23 4.87 53.58 4.97L53.58 4.97L53.58 4.97Q53.93 5.07 54.29 5.21L54.29 5.21L54.29 5.21Q54.64 5.35 54.91 5.49L54.91 5.49L54.91 5.49Q55.19 5.64 55.22 5.74L55.22 5.74L55.22 5.74Q55.15 6.08 55.10 6.76L55.10 6.76L55.10 6.76Q55.06 7.43 55.06 8.20L55.06 8.20L55.06 8.20Q55.06 9.73 55.18 11.19L55.18 11.19L55.18 11.19Q55.30 12.66 55.73 14.17L55.73 14.17L55.73 14.17Q55.96 13.05 56.22 11.94L56.22 11.94L56.22 11.94Q56.48 10.82 56.76 9.81L56.76 9.81L56.76 9.81Q57.04 8.79 57.32 7.92L57.32 7.92L57.32 7.92Q57.60 7.06 57.86 6.40L57.86 6.40L57.86 6.40Q58.11 5.75 58.34 5.38L58.34 5.38L58.34 5.38Q58.56 5.01 58.74 4.98L58.74 4.98L58.74 4.98Q58.90 5.01 59.08 5.10L59.08 5.10L59.08 5.10Q59.26 5.19 59.43 5.32L59.43 5.32L59.43 5.32Q59.60 5.45 59.74 5.60L59.74 5.60L59.74 5.60Q59.88 5.75 59.96 5.91L59.96 5.91L59.96 5.91Q59.51 6.09 59.07 6.76L59.07 6.76L59.07 6.76Q58.63 7.43 58.23 8.39L58.23 8.39L58.23 8.39Q57.83 9.35 57.49 10.47L57.49 10.47L57.49 10.47Q57.15 11.59 56.89 12.68L56.89 12.68L56.89 12.68Q56.63 13.76 56.48 14.69L56.48 14.69L56.48 14.69Q56.34 15.61 56.32 16.17L56.32 16.17L56.32 16.17Q56.32 16.20 56.34 16.21L56.34 16.21L56.34 16.21Q56.29 16.23 56.25 16.23L56.25 16.23L56.25 16.23Q56.20 16.23 56.15 16.23L56.15 16.23L56.15 16.23Q55.51 16.23 55.01 16.07L55.01 16.07L55.01 16.07Q54.52 15.90 54.36 15.61L54.36 15.61L54.36 15.61Q54.07 14.43 53.87 13.34L53.87 13.34L53.87 13.34Q53.68 12.25 53.54 11.16L53.54 11.16L53.54 11.16Q53.41 10.07 53.33 8.95L53.33 8.95L53.33 8.95Q53.26 7.84 53.21 6.62L53.21 6.62L53.21 6.62Q52.95 7.04 52.65 7.72L52.65 7.72L52.65 7.72Q52.36 8.40 52.08 9.21L52.08 9.21L52.08 9.21Q51.80 10.02 51.54 10.92L51.54 10.92L51.54 10.92Q51.28 11.82 51.09 12.67L51.09 12.67L51.09 12.67Q50.89 13.52 50.78 14.29L50.78 14.29L50.78 14.29Q50.67 15.05 50.67 15.61L50.67 15.61L50.67 15.61Q50.67 15.90 50.67 16.03L50.67 16.03L50.67 16.03Q50.68 16.16 50.71 16.24ZM73.78 10.72L73.78 10.72L73.78 10.72Q74.14 10.72 74.35 10.98L74.35 10.98L74.35 10.98Q74.56 11.23 74.56 11.68L74.56 11.68L74.56 11.68Q74.56 11.79 74.55 11.91L74.55 11.91L74.55 11.91Q74.54 12.03 74.51 12.11L74.51 12.11L74.51 12.11Q74.21 12.04 73.86 12.03L73.86 12.03L73.86 12.03Q73.78 12.64 73.42 13.32L73.42 13.32L73.42 13.32Q73.05 14 72.53 14.60L72.53 14.60L72.53 14.60Q72.02 15.19 71.40 15.64L71.40 15.64L71.40 15.64Q70.78 16.09 70.18 16.24L70.18 16.24L70.18 16.24Q68.31 16.20 67.44 15.27L67.44 15.27L67.44 15.27Q66.58 14.34 66.58 12.36L66.58 12.36L66.58 12.36Q66.58 10.92 67.12 9.57L67.12 9.57L67.12 9.57Q67.65 8.22 68.53 7.17L68.53 7.17L68.53 7.17Q69.41 6.12 70.55 5.48L70.55 5.48L70.55 5.48Q71.69 4.84 72.93 4.84L72.93 4.84L72.93 4.84Q73.89 4.84 74.43 5.25L74.43 5.25L74.43 5.25Q74.97 5.66 74.97 6.40L74.97 6.40L74.97 6.40Q74.97 6.89 74.74 7.31L74.74 7.31L74.74 7.31Q74.51 7.73 73.98 8.22L73.98 8.22L73.98 8.22Q73.65 8.12 73.42 7.88L73.42 7.88L73.42 7.88Q73.18 7.63 73.12 7.31L73.12 7.31L73.12 7.31Q73.60 6.96 73.79 6.66L73.79 6.66L73.79 6.66Q73.99 6.37 73.99 5.96L73.99 5.96L73.99 5.96Q73.99 5.32 73.22 5.32L73.22 5.32L73.22 5.32Q72.59 5.32 71.87 5.79L71.87 5.79L71.87 5.79Q71.15 6.26 70.42 7.14L70.42 7.14L70.42 7.14Q69.38 8.39 68.91 9.71L68.91 9.71L68.91 9.71Q68.43 11.03 68.43 12.68L68.43 12.68L68.43 12.68Q68.43 13.30 68.56 13.80L68.56 13.80L68.56 13.80Q68.68 14.31 68.89 14.69L68.89 14.69L68.89 14.69Q69.10 15.06 69.39 15.29L69.39 15.29L69.39 15.29Q69.68 15.51 70.01 15.54L70.01 15.54L70.01 15.54Q70.46 15.44 70.91 15.09L70.91 15.09L70.91 15.09Q71.36 14.73 71.73 14.25L71.73 14.25L71.73 14.25Q72.10 13.76 72.36 13.21L72.36 13.21L72.36 13.21Q72.62 12.66 72.67 12.15L72.67 12.15L72.67 12.15Q72.28 12.24 71.92 12.31L71.92 12.31L71.92 12.31Q71.57 12.39 71.25 12.39L71.25 12.39L71.25 12.39Q70.83 12.39 70.51 12.18L70.51 12.18L70.51 12.18Q70.20 11.97 70.08 11.61L70.08 11.61L70.08 11.61Q70.34 11.47 70.82 11.31L70.82 11.31L70.82 11.31Q71.30 11.16 71.85 11.03L71.85 11.03L71.85 11.03Q72.39 10.89 72.92 10.81L72.92 10.81L72.92 10.81Q73.44 10.72 73.78 10.72ZM88.58 4.98L88.58 4.98L88.58 4.98Q88.84 5.10 89.12 5.27L89.12 5.27L89.12 5.27Q89.40 5.45 89.64 5.63L89.64 5.63L89.64 5.63Q89.88 5.81 90.04 5.98L90.04 5.98L90.04 5.98Q90.20 6.16 90.22 6.27L90.22 6.27L90.22 6.27Q89.98 6.22 89.74 6.20L89.74 6.20L89.74 6.20Q89.50 6.17 89.31 6.17L89.31 6.17L89.31 6.17Q88.68 6.17 88.05 6.48L88.05 6.48L88.05 6.48Q87.43 6.79 86.87 7.32L86.87 7.32L86.87 7.32Q86.31 7.85 85.83 8.57L85.83 8.57L85.83 8.57Q85.36 9.28 85.01 10.09L85.01 10.09L85.01 10.09Q84.67 10.91 84.48 11.77L84.48 11.77L84.48 11.77Q84.28 12.64 84.28 13.48L84.28 13.48L84.28 13.48Q84.28 14.57 84.64 15.11L84.64 15.11L84.64 15.11Q85.01 15.64 85.71 15.64L85.71 15.64L85.71 15.64Q86.04 15.64 86.44 15.51L86.44 15.51L86.44 15.51Q86.83 15.37 87.23 15.13L87.23 15.13L87.23 15.13Q87.64 14.90 88.03 14.56L88.03 14.56L88.03 14.56Q88.42 14.22 88.76 13.82L88.76 13.82L88.76 13.82Q89.25 13.23 89.64 12.48L89.64 12.48L89.64 12.48Q90.03 11.73 90.31 10.89L90.31 10.89L90.31 10.89Q90.58 10.05 90.73 9.16L90.73 9.16L90.73 9.16Q90.87 8.27 90.87 7.42L90.87 7.42L90.87 7.42Q90.87 7.08 90.86 6.85L90.86 6.85L90.86 6.85Q90.85 6.62 90.82 6.46L90.82 6.46L90.82 6.46Q90.80 6.30 90.79 6.20L90.79 6.20L90.79 6.20Q90.78 6.10 90.76 6.03L90.76 6.03L90.76 6.03Q90.93 6.12 91.13 6.24L91.13 6.24L91.13 6.24Q91.34 6.36 91.51 6.59L91.51 6.59L91.51 6.59Q91.69 6.82 91.80 7.20L91.80 7.20L91.80 7.20Q91.92 7.57 91.92 8.18L91.92 8.18L91.92 8.18Q91.92 9.16 91.69 10.10L91.69 10.10L91.69 10.10Q91.46 11.05 91.05 11.90L91.05 11.90L91.05 11.90Q90.64 12.75 90.08 13.50L90.08 13.50L90.08 13.50Q89.52 14.24 88.87 14.80L88.87 14.80L88.87 14.80Q88.03 15.54 87.08 15.95L87.08 15.95L87.08 15.95Q86.13 16.35 85.25 16.35L85.25 16.35L85.25 16.35Q83.96 16.35 83.28 15.53L83.28 15.53L83.28 15.53Q82.60 14.71 82.60 13.12L82.60 13.12L82.60 13.12Q82.60 12.26 82.79 11.31L82.79 11.31L82.79 11.31Q82.98 10.36 83.32 9.44L83.32 9.44L83.32 9.44Q83.66 8.51 84.14 7.68L84.14 7.68L84.14 7.68Q84.62 6.85 85.18 6.21L85.18 6.21L85.18 6.21Q85.75 5.57 86.40 5.19L86.40 5.19L86.40 5.19Q87.05 4.82 87.74 4.82L87.74 4.82L87.74 4.82Q87.96 4.82 88.16 4.85L88.16 4.85L88.16 4.85Q88.35 4.89 88.58 4.98ZM110.52 14.45L110.52 14.45L110.52 14.45Q110.73 13.99 111.02 13.26L111.02 13.26L111.02 13.26Q111.31 12.53 111.64 11.68L111.64 11.68L111.64 11.68Q111.96 10.84 112.29 9.95L112.29 9.95L112.29 9.95Q112.63 9.06 112.92 8.26L112.92 8.26L112.92 8.26Q113.22 7.46 113.43 6.83L113.43 6.83L113.43 6.83Q113.65 6.20 113.75 5.87L113.75 5.87L113.75 5.87Q112.87 6.23 112.24 6.97L112.24 6.97L112.24 6.97Q111.61 7.71 111.29 8.83L111.29 8.83L111.29 8.83Q110.96 8.72 110.70 8.43L110.70 8.43L110.70 8.43Q110.43 8.15 110.35 7.71L110.35 7.71L110.35 7.71Q110.49 7.07 110.87 6.54L110.87 6.54L110.87 6.54Q111.26 6.01 111.85 5.63L111.85 5.63L111.85 5.63Q112.43 5.25 113.20 5.05L113.20 5.05L113.20 5.05Q113.97 4.84 114.86 4.84L114.86 4.84L114.86 4.84Q115.98 4.84 116.91 5.17L116.91 5.17L116.91 5.17Q117.85 5.50 118.52 6.09L118.52 6.09L118.52 6.09Q119.20 6.68 119.57 7.50L119.57 7.50L119.57 7.50Q119.95 8.33 119.95 9.34L119.95 9.34L119.95 9.34Q119.95 10.71 119.45 11.96L119.45 11.96L119.45 11.96Q118.94 13.20 118.08 14.15L118.08 14.15L118.08 14.15Q117.22 15.11 116.09 15.67L116.09 15.67L116.09 15.67Q114.95 16.24 113.71 16.24L113.71 16.24L113.71 16.24Q112.56 16.24 111.74 15.79L111.74 15.79L111.74 15.79Q110.92 15.33 110.52 14.45ZM115.46 5.54L115.46 5.54L115.46 5.54Q114.76 5.54 114.13 5.74L114.13 5.74L114.13 5.74Q114.74 5.96 115.15 6.21L115.15 6.21L115.15 6.21Q115.56 6.45 115.71 6.59L115.71 6.59L115.71 6.59Q115.60 6.75 115.38 7.14L115.38 7.14L115.38 7.14Q115.16 7.53 114.88 8.09L114.88 8.09L114.88 8.09Q114.59 8.65 114.27 9.32L114.27 9.32L114.27 9.32Q113.95 9.98 113.64 10.68L113.64 10.68L113.64 10.68Q112.84 12.46 112.48 13.48L112.48 13.48L112.48 13.48Q112.13 14.50 112.13 14.90L112.13 14.90L112.13 14.90Q112.32 14.97 112.60 14.99L112.60 14.99L112.60 14.99Q112.88 15.02 113.20 15.02L113.20 15.02L113.20 15.02Q114.34 15.02 115.35 14.50L115.35 14.50L115.35 14.50Q116.37 13.97 117.13 13.09L117.13 13.09L117.13 13.09Q117.89 12.21 118.33 11.04L118.33 11.04L118.33 11.04Q118.78 9.87 118.78 8.58L118.78 8.58L118.78 8.58Q118.78 7.14 117.88 6.34L117.88 6.34L117.88 6.34Q116.98 5.54 115.46 5.54ZM133.25 9.21L133.25 9.21L133.25 9.21Q133.71 9.21 133.97 9.46L133.97 9.46L133.97 9.46Q134.23 9.72 134.23 10.16L134.23 10.16L134.23 10.16Q134.23 10.28 134.21 10.39L134.21 10.39L134.21 10.39Q134.19 10.51 134.16 10.60L134.16 10.60L134.16 10.60Q133.98 10.57 133.76 10.55L133.76 10.55L133.76 10.55Q133.53 10.53 133.22 10.53L133.22 10.53L133.22 10.53Q132.62 10.53 132.01 10.63L132.01 10.63L132.01 10.63Q131.39 10.74 130.83 10.81L130.83 10.81L130.83 10.81Q130.51 11.55 130.24 12.24L130.24 12.24L130.24 12.24Q129.98 12.94 129.79 13.51L129.79 13.51L129.79 13.51Q129.60 14.08 129.49 14.50L129.49 14.50L129.49 14.50Q129.39 14.92 129.37 15.13L129.37 15.13L129.37 15.13Q130.51 14.90 131.66 14.73L131.66 14.73L131.66 14.73Q132.82 14.56 134.09 14.48L134.09 14.48L134.09 14.48Q134.25 14.71 134.35 14.99L134.35 14.99L134.35 14.99Q134.46 15.27 134.46 15.60L134.46 15.60L134.46 15.60Q134.46 15.68 134.46 15.78L134.46 15.78L134.46 15.78Q134.46 15.88 134.43 15.97L134.43 15.97L134.43 15.97Q134.04 15.96 133.60 15.95L133.60 15.95L133.60 15.95Q133.17 15.95 132.47 15.95L132.47 15.95L132.47 15.95Q132.01 15.95 131.59 15.97L131.59 15.97L131.59 15.97Q131.18 15.99 130.76 16.03L130.76 16.03L130.76 16.03Q130.34 16.07 129.87 16.14L129.87 16.14L129.87 16.14Q129.40 16.21 128.81 16.31L128.81 16.31L128.81 16.31Q128.17 16.06 127.57 15.08L127.57 15.08L127.57 15.08Q127.81 14.57 128.23 13.54L128.23 13.54L128.23 13.54Q128.66 12.52 129.32 10.79L129.32 10.79L129.32 10.79Q128.69 10.60 128.49 10.09L128.49 10.09L128.49 10.09Q128.56 10.02 128.90 9.92L128.90 9.92L128.90 9.92Q129.23 9.81 129.72 9.70L129.72 9.70L129.72 9.70Q129.93 9.16 130.08 8.75L130.08 8.75L130.08 8.75Q130.23 8.34 130.34 7.99L130.34 7.99L130.34 7.99Q130.45 7.63 130.54 7.29L130.54 7.29L130.54 7.29Q130.63 6.94 130.72 6.54L130.72 6.54L130.72 6.54Q130.23 6.51 129.95 6.27L129.95 6.27L129.95 6.27Q129.67 6.02 129.67 5.63L129.67 5.63L129.67 5.63Q129.67 5.52 129.70 5.36L129.70 5.36L129.70 5.36Q129.74 5.21 129.78 5.10L129.78 5.10L129.78 5.10Q130.06 5.14 130.32 5.15L130.32 5.15L130.32 5.15Q130.58 5.17 131.00 5.17L131.00 5.17L131.00 5.17Q131.88 5.17 132.65 5.12L132.65 5.12L132.65 5.12Q133.42 5.07 134.04 5.01L134.04 5.01L134.04 5.01Q134.67 4.96 135.11 4.91L135.11 4.91L135.11 4.91Q135.56 4.86 135.80 4.86L135.80 4.86L135.80 4.86Q136.12 4.86 136.37 5.19L136.37 5.19L136.37 5.19Q136.63 5.53 136.75 6.15L136.75 6.15L136.75 6.15Q136.32 6.10 136.04 6.09L136.04 6.09L136.04 6.09Q135.77 6.08 135.56 6.08L135.56 6.08L135.56 6.08Q134.79 6.08 134.15 6.15L134.15 6.15L134.15 6.15Q133.52 6.23 132.93 6.31L132.93 6.31L132.93 6.31Q132.85 6.44 132.74 6.64L132.74 6.64L132.74 6.64Q132.64 6.83 132.47 7.18L132.47 7.18L132.47 7.18Q132.30 7.53 132.05 8.06L132.05 8.06L132.05 8.06Q131.81 8.60 131.46 9.39L131.46 9.39L131.46 9.39Q131.99 9.31 132.46 9.26L132.46 9.26L132.46 9.26Q132.93 9.21 133.25 9.21ZM147.45 16.07L147.45 16.07L147.45 16.07Q147.13 16.24 146.76 16.24L146.76 16.24L146.76 16.24Q146.31 16.18 145.90 16.02L145.90 16.02L145.90 16.02Q145.49 15.85 145.29 15.61L145.29 15.61L145.29 15.61Q145.18 14.92 145.11 14.35L145.11 14.35L145.11 14.35Q145.04 13.78 145.00 13.27L145.00 13.27L145.00 13.27Q144.96 12.75 144.94 12.29L144.94 12.29L144.94 12.29Q144.93 11.82 144.93 11.34L144.93 11.34L144.93 11.34Q144.93 10.71 144.94 10.01L144.94 10.01L144.94 10.01Q144.96 9.31 144.98 8.52L144.98 8.52L144.98 8.52Q145.00 7.73 145.01 6.82L145.01 6.82L145.01 6.82Q145.03 5.92 145.03 4.86L145.03 4.86L145.03 4.86Q145.21 4.86 145.57 4.96L145.57 4.96L145.57 4.96Q145.94 5.07 146.29 5.21L146.29 5.21L146.29 5.21Q146.65 5.35 146.93 5.49L146.93 5.49L146.93 5.49Q147.21 5.64 147.24 5.74L147.24 5.74L147.24 5.74Q147.10 6.13 146.99 6.76L146.99 6.76L146.99 6.76Q146.89 7.39 146.82 8.16L146.82 8.16L146.82 8.16Q146.76 8.93 146.73 9.79L146.73 9.79L146.73 9.79Q146.71 10.64 146.71 11.48L146.71 11.48L146.71 11.48Q146.71 12.11 146.72 12.61L146.72 12.61L146.72 12.61Q146.73 13.10 146.75 13.50L146.75 13.50L146.75 13.50Q146.78 13.90 146.82 14.25L146.82 14.25L146.82 14.25Q146.86 14.59 146.92 14.92L146.92 14.92L146.92 14.92Q147.31 13.73 147.78 12.54L147.78 12.54L147.78 12.54Q148.25 11.35 148.74 10.25L148.74 10.25L148.74 10.25Q149.24 9.16 149.73 8.20L149.73 8.20L149.73 8.20Q150.22 7.25 150.66 6.54L150.66 6.54L150.66 6.54Q151.10 5.84 151.45 5.43L151.45 5.43L151.45 5.43Q151.80 5.01 152.03 4.98L152.03 4.98L152.03 4.98Q152.18 5.01 152.35 5.10L152.35 5.10L152.35 5.10Q152.53 5.19 152.68 5.32L152.68 5.32L152.68 5.32Q152.84 5.45 152.96 5.60L152.96 5.60L152.96 5.60Q153.09 5.75 153.16 5.91L153.16 5.91L153.16 5.91Q152.64 6.09 152.05 6.76L152.05 6.76L152.05 6.76Q151.45 7.43 150.85 8.38L150.85 8.38L150.85 8.38Q150.25 9.32 149.68 10.44L149.68 10.44L149.68 10.44Q149.11 11.55 148.66 12.61L148.66 12.61L148.66 12.61Q148.20 13.68 147.88 14.60L147.88 14.60L147.88 14.60Q147.56 15.53 147.45 16.07ZM164.42 9.21L164.42 9.21L164.42 9.21Q164.88 9.21 165.14 9.46L165.14 9.46L165.14 9.46Q165.40 9.72 165.40 10.16L165.40 10.16L165.40 10.16Q165.40 10.28 165.38 10.39L165.38 10.39L165.38 10.39Q165.35 10.51 165.33 10.60L165.33 10.60L165.33 10.60Q165.14 10.57 164.92 10.55L164.92 10.55L164.92 10.55Q164.70 10.53 164.39 10.53L164.39 10.53L164.39 10.53Q163.79 10.53 163.17 10.63L163.17 10.63L163.17 10.63Q162.55 10.74 161.99 10.81L161.99 10.81L161.99 10.81Q161.67 11.55 161.41 12.24L161.41 12.24L161.41 12.24Q161.14 12.94 160.95 13.51L160.95 13.51L160.95 13.51Q160.76 14.08 160.66 14.50L160.66 14.50L160.66 14.50Q160.55 14.92 160.54 15.13L160.54 15.13L160.54 15.13Q161.67 14.90 162.83 14.73L162.83 14.73L162.83 14.73Q163.98 14.56 165.26 14.48L165.26 14.48L165.26 14.48Q165.41 14.71 165.51 14.99L165.51 14.99L165.51 14.99Q165.62 15.27 165.62 15.60L165.62 15.60L165.62 15.60Q165.62 15.68 165.62 15.78L165.62 15.78L165.62 15.78Q165.62 15.88 165.59 15.97L165.59 15.97L165.59 15.97Q165.20 15.96 164.77 15.95L164.77 15.95L164.77 15.95Q164.33 15.95 163.63 15.95L163.63 15.95L163.63 15.95Q163.17 15.95 162.76 15.97L162.76 15.97L162.76 15.97Q162.34 15.99 161.92 16.03L161.92 16.03L161.92 16.03Q161.50 16.07 161.03 16.14L161.03 16.14L161.03 16.14Q160.57 16.21 159.98 16.31L159.98 16.31L159.98 16.31Q159.33 16.06 158.73 15.08L158.73 15.08L158.73 15.08Q158.97 14.57 159.40 13.54L159.40 13.54L159.40 13.54Q159.82 12.52 160.48 10.79L160.48 10.79L160.48 10.79Q159.85 10.60 159.66 10.09L159.66 10.09L159.66 10.09Q159.73 10.02 160.06 9.92L160.06 9.92L160.06 9.92Q160.40 9.81 160.89 9.70L160.89 9.70L160.89 9.70Q161.10 9.16 161.25 8.75L161.25 8.75L161.25 8.75Q161.39 8.34 161.50 7.99L161.50 7.99L161.50 7.99Q161.62 7.63 161.71 7.29L161.71 7.29L161.71 7.29Q161.80 6.94 161.88 6.54L161.88 6.54L161.88 6.54Q161.39 6.51 161.11 6.27L161.11 6.27L161.11 6.27Q160.83 6.02 160.83 5.63L160.83 5.63L160.83 5.63Q160.83 5.52 160.87 5.36L160.87 5.36L160.87 5.36Q160.90 5.21 160.94 5.10L160.94 5.10L160.94 5.10Q161.22 5.14 161.48 5.15L161.48 5.15L161.48 5.15Q161.74 5.17 162.16 5.17L162.16 5.17L162.16 5.17Q163.04 5.17 163.81 5.12L163.81 5.12L163.81 5.12Q164.58 5.07 165.21 5.01L165.21 5.01L165.21 5.01Q165.83 4.96 166.28 4.91L166.28 4.91L166.28 4.91Q166.73 4.86 166.96 4.86L166.96 4.86L166.96 4.86Q167.29 4.86 167.54 5.19L167.54 5.19L167.54 5.19Q167.79 5.53 167.92 6.15L167.92 6.15L167.92 6.15Q167.48 6.10 167.21 6.09L167.21 6.09L167.21 6.09Q166.94 6.08 166.73 6.08L166.73 6.08L166.73 6.08Q165.96 6.08 165.32 6.15L165.32 6.15L165.32 6.15Q164.68 6.23 164.09 6.31L164.09 6.31L164.09 6.31Q164.01 6.44 163.91 6.64L163.91 6.64L163.91 6.64Q163.80 6.83 163.63 7.18L163.63 7.18L163.63 7.18Q163.46 7.53 163.22 8.06L163.22 8.06L163.22 8.06Q162.97 8.60 162.62 9.39L162.62 9.39L162.62 9.39Q163.16 9.31 163.63 9.26L163.63 9.26L163.63 9.26Q164.09 9.21 164.42 9.21ZM179.37 14.38L179.37 14.38L179.37 14.38Q179.72 14.98 179.72 15.54L179.72 15.54L179.72 15.54Q179.72 15.67 179.70 15.77L179.70 15.77L179.70 15.77Q179.68 15.88 179.65 15.99L179.65 15.99L179.65 15.99Q179.41 15.96 179.15 15.95L179.15 15.95L179.15 15.95Q178.89 15.93 178.61 15.93L178.61 15.93L178.61 15.93Q178.28 15.93 177.93 15.95L177.93 15.95L177.93 15.95Q177.59 15.97 177.17 16.02L177.17 16.02L177.17 16.02Q176.75 16.06 176.23 16.13L176.23 16.13L176.23 16.13Q175.71 16.20 175.03 16.31L175.03 16.31L175.03 16.31Q174.71 16.20 174.38 15.87L174.38 15.87L174.38 15.87Q174.06 15.54 173.78 15.08L173.78 15.08L173.78 15.08Q173.92 14.77 174.13 14.31L174.13 14.31L174.13 14.31Q174.34 13.86 174.62 13.21L174.62 13.21L174.62 13.21Q174.90 12.56 175.25 11.68L175.25 11.68L175.25 11.68Q175.59 10.81 175.98 9.66L175.98 9.66L175.98 9.66Q176.23 8.90 176.41 8.33L176.41 8.33L176.41 8.33Q176.60 7.76 176.74 7.22L176.74 7.22L176.74 7.22Q176.89 6.68 177.03 6.09L177.03 6.09L177.03 6.09Q177.17 5.50 177.34 4.73L177.34 4.73L177.34 4.73Q177.90 4.84 178.31 5.14L178.31 5.14L178.31 5.14Q178.72 5.45 179.10 6.01L179.10 6.01L179.10 6.01Q178.99 6.19 178.81 6.59L178.81 6.59L178.81 6.59Q178.63 7 178.38 7.58L178.38 7.58L178.38 7.58Q178.14 8.16 177.84 8.90L177.84 8.90L177.84 8.90Q177.55 9.63 177.23 10.47L177.23 10.47L177.23 10.47Q176.92 11.30 176.62 12.03L176.62 12.03L176.62 12.03Q176.33 12.75 176.10 13.34L176.10 13.34L176.10 13.34Q175.87 13.93 175.73 14.35L175.73 14.35L175.73 14.35Q175.59 14.77 175.59 14.98L175.59 14.98L175.59 14.98Q175.81 14.97 175.99 14.95L175.99 14.95L175.99 14.95Q176.18 14.94 176.37 14.90L176.37 14.90L176.37 14.90Q176.57 14.87 176.80 14.82L176.80 14.82L176.80 14.82Q177.03 14.77 177.35 14.69L177.35 14.69L177.35 14.69Q177.63 14.62 177.87 14.57L177.87 14.57L177.87 14.57Q178.11 14.52 178.34 14.48L178.34 14.48L178.34 14.48Q178.57 14.45 178.81 14.43L178.81 14.43L178.81 14.43Q179.06 14.41 179.37 14.38ZM194.17 4.98L194.17 4.98L194.17 4.98Q194.43 5.10 194.71 5.27L194.71 5.27L194.71 5.27Q194.99 5.45 195.23 5.63L195.23 5.63L195.23 5.63Q195.47 5.81 195.63 5.98L195.63 5.98L195.63 5.98Q195.79 6.16 195.80 6.27L195.80 6.27L195.80 6.27Q195.57 6.22 195.33 6.20L195.33 6.20L195.33 6.20Q195.09 6.17 194.89 6.17L194.89 6.17L194.89 6.17Q194.26 6.17 193.64 6.48L193.64 6.48L193.64 6.48Q193.02 6.79 192.46 7.32L192.46 7.32L192.46 7.32Q191.90 7.85 191.42 8.57L191.42 8.57L191.42 8.57Q190.95 9.28 190.60 10.09L190.60 10.09L190.60 10.09Q190.26 10.91 190.06 11.77L190.06 11.77L190.06 11.77Q189.87 12.64 189.87 13.48L189.87 13.48L189.87 13.48Q189.87 14.57 190.23 15.11L190.23 15.11L190.23 15.11Q190.60 15.64 191.30 15.64L191.30 15.64L191.30 15.64Q191.63 15.64 192.02 15.51L192.02 15.51L192.02 15.51Q192.42 15.37 192.82 15.13L192.82 15.13L192.82 15.13Q193.23 14.90 193.62 14.56L193.62 14.56L193.62 14.56Q194.01 14.22 194.35 13.82L194.35 13.82L194.35 13.82Q194.84 13.23 195.23 12.48L195.23 12.48L195.23 12.48Q195.62 11.73 195.90 10.89L195.90 10.89L195.90 10.89Q196.17 10.05 196.31 9.16L196.31 9.16L196.31 9.16Q196.46 8.27 196.46 7.42L196.46 7.42L196.46 7.42Q196.46 7.08 196.45 6.85L196.45 6.85L196.45 6.85Q196.43 6.62 196.41 6.46L196.41 6.46L196.41 6.46Q196.39 6.30 196.38 6.20L196.38 6.20L196.38 6.20Q196.36 6.10 196.35 6.03L196.35 6.03L196.35 6.03Q196.52 6.12 196.72 6.24L196.72 6.24L196.72 6.24Q196.92 6.36 197.10 6.59L197.10 6.59L197.10 6.59Q197.27 6.82 197.39 7.20L197.39 7.20L197.39 7.20Q197.51 7.57 197.51 8.18L197.51 8.18L197.51 8.18Q197.51 9.16 197.28 10.10L197.28 10.10L197.28 10.10Q197.05 11.05 196.64 11.90L196.64 11.90L196.64 11.90Q196.22 12.75 195.66 13.50L195.66 13.50L195.66 13.50Q195.10 14.24 194.46 14.80L194.46 14.80L194.46 14.80Q193.62 15.54 192.67 15.95L192.67 15.95L192.67 15.95Q191.72 16.35 190.83 16.35L190.83 16.35L190.83 16.35Q189.55 16.35 188.87 15.53L188.87 15.53L188.87 15.53Q188.19 14.71 188.19 13.12L188.19 13.12L188.19 13.12Q188.19 12.26 188.38 11.31L188.38 11.31L188.38 11.31Q188.57 10.36 188.91 9.44L188.91 9.44L188.91 9.44Q189.25 8.51 189.73 7.68L189.73 7.68L189.73 7.68Q190.20 6.85 190.77 6.21L190.77 6.21L190.77 6.21Q191.34 5.57 191.99 5.19L191.99 5.19L191.99 5.19Q192.64 4.82 193.33 4.82L193.33 4.82L193.33 4.82Q193.55 4.82 193.75 4.85L193.75 4.85L193.75 4.85Q193.94 4.89 194.17 4.98ZM214.37 7.63L214.37 7.63L214.37 7.63Q214.37 8.40 213.98 9.10L213.98 9.10L213.98 9.10Q213.60 9.80 212.95 10.32L212.95 10.32L212.95 10.32Q212.30 10.85 211.42 11.16L211.42 11.16L211.42 11.16Q210.55 11.47 209.57 11.47L209.57 11.47L209.57 11.47Q209.22 11.47 209.01 11.38L209.01 11.38L209.01 11.38Q208.81 11.28 208.56 11.02L208.56 11.02L208.56 11.02Q207.86 12.54 207.42 13.82L207.42 13.82L207.42 13.82Q206.98 15.11 206.72 16.31L206.72 16.31L206.72 16.31Q206.19 16.18 205.86 15.87L205.86 15.87L205.86 15.87Q205.52 15.55 205.24 15.08L205.24 15.08L205.24 15.08Q205.38 14.81 205.58 14.38L205.58 14.38L205.58 14.38Q205.77 13.94 206.05 13.31L206.05 13.31L206.05 13.31Q206.33 12.67 206.70 11.78L206.70 11.78L206.70 11.78Q207.07 10.89 207.58 9.70L207.58 9.70L207.58 9.70Q207.80 9.16 207.97 8.75L207.97 8.75L207.97 8.75Q208.14 8.34 208.26 7.99L208.26 7.99L208.26 7.99Q208.39 7.63 208.50 7.28L208.50 7.28L208.50 7.28Q208.60 6.93 208.71 6.51L208.71 6.51L208.71 6.51Q208.05 6.72 207.50 7L207.50 7L207.50 7Q206.95 7.28 206.58 7.59L206.58 7.59L206.58 7.59Q206.46 7.50 206.33 7.34L206.33 7.34L206.33 7.34Q206.19 7.17 206.08 6.96L206.08 6.96L206.08 6.96Q205.97 6.76 205.88 6.55L205.88 6.55L205.88 6.55Q205.80 6.34 205.79 6.17L205.79 6.17L205.79 6.17Q206.19 5.89 206.79 5.66L206.79 5.66L206.79 5.66Q207.40 5.42 208.08 5.24L208.08 5.24L208.08 5.24Q208.77 5.07 209.50 4.97L209.50 4.97L209.50 4.97Q210.24 4.87 210.91 4.87L210.91 4.87L210.91 4.87Q211.71 4.87 212.35 5.07L212.35 5.07L212.35 5.07Q213.00 5.28 213.44 5.64L213.44 5.64L213.44 5.64Q213.89 6.01 214.13 6.51L214.13 6.51L214.13 6.51Q214.37 7.01 214.37 7.63ZM211.88 5.95L211.88 5.95L211.88 5.95Q211.34 5.95 210.78 6.03L210.78 6.03L210.95 6.29L210.95 6.29Q210.81 6.47 210.60 6.83L210.60 6.83L210.60 6.83Q210.39 7.20 210.14 7.71L210.14 7.71L210.14 7.71Q209.89 8.22 209.59 8.85L209.59 8.85L209.59 8.85Q209.29 9.48 208.95 10.18L208.95 10.18L208.95 10.18Q210.04 10.18 210.94 9.97L210.94 9.97L210.94 9.97Q211.83 9.77 212.47 9.41L212.47 9.41L212.47 9.41Q213.11 9.06 213.47 8.58L213.47 8.58L213.47 8.58Q213.82 8.11 213.82 7.56L213.82 7.56L213.82 7.56Q213.82 6.83 213.33 6.39L213.33 6.39L213.33 6.39Q212.84 5.95 211.88 5.95ZM226.60 9.21L226.60 9.21L226.60 9.21Q227.07 9.21 227.33 9.46L227.33 9.46L227.33 9.46Q227.58 9.72 227.58 10.16L227.58 10.16L227.58 10.16Q227.58 10.28 227.56 10.39L227.56 10.39L227.56 10.39Q227.54 10.51 227.51 10.60L227.51 10.60L227.51 10.60Q227.33 10.57 227.11 10.55L227.11 10.55L227.11 10.55Q226.88 10.53 226.58 10.53L226.58 10.53L226.58 10.53Q225.97 10.53 225.36 10.63L225.36 10.63L225.36 10.63Q224.74 10.74 224.18 10.81L224.18 10.81L224.18 10.81Q223.86 11.55 223.59 12.24L223.59 12.24L223.59 12.24Q223.33 12.94 223.14 13.51L223.14 13.51L223.14 13.51Q222.95 14.08 222.85 14.50L222.85 14.50L222.85 14.50Q222.74 14.92 222.73 15.13L222.73 15.13L222.73 15.13Q223.86 14.90 225.02 14.73L225.02 14.73L225.02 14.73Q226.17 14.56 227.44 14.48L227.44 14.48L227.44 14.48Q227.60 14.71 227.70 14.99L227.70 14.99L227.70 14.99Q227.81 15.27 227.81 15.60L227.81 15.60L227.81 15.60Q227.81 15.68 227.81 15.78L227.81 15.78L227.81 15.78Q227.81 15.88 227.78 15.97L227.78 15.97L227.78 15.97Q227.39 15.96 226.95 15.95L226.95 15.95L226.95 15.95Q226.52 15.95 225.82 15.95L225.82 15.95L225.82 15.95Q225.36 15.95 224.95 15.97L224.95 15.97L224.95 15.97Q224.53 15.99 224.11 16.03L224.11 16.03L224.11 16.03Q223.69 16.07 223.22 16.14L223.22 16.14L223.22 16.14Q222.75 16.21 222.17 16.31L222.17 16.31L222.17 16.31Q221.52 16.06 220.92 15.08L220.92 15.08L220.92 15.08Q221.16 14.57 221.59 13.54L221.59 13.54L221.59 13.54Q222.01 12.52 222.67 10.79L222.67 10.79L222.67 10.79Q222.04 10.60 221.84 10.09L221.84 10.09L221.84 10.09Q221.91 10.02 222.25 9.92L222.25 9.92L222.25 9.92Q222.59 9.81 223.08 9.70L223.08 9.70L223.08 9.70Q223.29 9.16 223.43 8.75L223.43 8.75L223.43 8.75Q223.58 8.34 223.69 7.99L223.69 7.99L223.69 7.99Q223.80 7.63 223.90 7.29L223.90 7.29L223.90 7.29Q223.99 6.94 224.07 6.54L224.07 6.54L224.07 6.54Q223.58 6.51 223.30 6.27L223.30 6.27L223.30 6.27Q223.02 6.02 223.02 5.63L223.02 5.63L223.02 5.63Q223.02 5.52 223.06 5.36L223.06 5.36L223.06 5.36Q223.09 5.21 223.13 5.10L223.13 5.10L223.13 5.10Q223.41 5.14 223.67 5.15L223.67 5.15L223.67 5.15Q223.93 5.17 224.35 5.17L224.35 5.17L224.35 5.17Q225.23 5.17 226.00 5.12L226.00 5.12L226.00 5.12Q226.77 5.07 227.40 5.01L227.40 5.01L227.40 5.01Q228.02 4.96 228.47 4.91L228.47 4.91L228.47 4.91Q228.91 4.86 229.15 4.86L229.15 4.86L229.15 4.86Q229.47 4.86 229.73 5.19L229.73 5.19L229.73 5.19Q229.98 5.53 230.10 6.15L230.10 6.15L230.10 6.15Q229.67 6.10 229.40 6.09L229.40 6.09L229.40 6.09Q229.12 6.08 228.91 6.08L228.91 6.08L228.91 6.08Q228.14 6.08 227.51 6.15L227.51 6.15L227.51 6.15Q226.87 6.23 226.28 6.31L226.28 6.31L226.28 6.31Q226.20 6.44 226.09 6.64L226.09 6.64L226.09 6.64Q225.99 6.83 225.82 7.18L225.82 7.18L225.82 7.18Q225.65 7.53 225.41 8.06L225.41 8.06L225.41 8.06Q225.16 8.60 224.81 9.39L224.81 9.39L224.81 9.39Q225.34 9.31 225.81 9.26L225.81 9.26L225.81 9.26Q226.28 9.21 226.60 9.21ZM245.87 7.46L245.87 7.46L245.87 7.46Q245.87 8.13 245.57 8.73L245.57 8.73L245.57 8.73Q245.27 9.32 244.73 9.79L244.73 9.79L244.73 9.79Q244.20 10.26 243.49 10.58L243.49 10.58L243.49 10.58Q242.77 10.91 241.93 11.02L241.93 11.02L241.93 11.02Q242.14 11.65 242.45 12.31L242.45 12.31L242.45 12.31Q242.75 12.98 243.10 13.59L243.10 13.59L243.10 13.59Q243.45 14.21 243.82 14.73L243.82 14.73L243.82 14.73Q244.20 15.25 244.57 15.58L244.57 15.58L244.57 15.58Q244.50 15.72 244.36 15.86L244.36 15.86L244.36 15.86Q244.23 16.00 244.06 16.12L244.06 16.12L244.06 16.12Q243.88 16.24 243.69 16.32L243.69 16.32L243.69 16.32Q243.50 16.39 243.33 16.39L243.33 16.39L243.33 16.39Q243.03 16.39 242.75 16.10L242.75 16.10L242.75 16.10Q242.47 15.81 242.18 15.17L242.18 15.17L242.18 15.17Q241.89 14.53 241.58 13.52L241.58 13.52L241.58 13.52Q241.26 12.50 240.88 11.07L240.88 11.07L240.88 11.07Q240.73 11.07 240.58 11.07L240.58 11.07L240.58 11.07Q240.42 11.07 240.34 11.05L240.34 11.05L240.34 11.05Q240.24 10.99 240.13 10.85L240.13 10.85L240.13 10.85Q239.75 11.66 239.46 12.38L239.46 12.38L239.46 12.38Q239.16 13.09 238.93 13.76L238.93 13.76L238.93 13.76Q238.70 14.42 238.53 15.04L238.53 15.04L238.53 15.04Q238.35 15.67 238.22 16.31L238.22 16.31L238.22 16.31Q237.75 16.20 237.40 15.90L237.40 15.90L237.40 15.90Q237.05 15.61 236.74 15.08L236.74 15.08L236.74 15.08Q236.80 14.95 236.86 14.83L236.86 14.83L236.86 14.83Q236.92 14.71 237.02 14.50L237.02 14.50L237.02 14.50Q237.12 14.28 237.27 13.94L237.27 13.94L237.27 13.94Q237.41 13.61 237.66 13.05L237.66 13.05L237.66 13.05Q237.90 12.49 238.25 11.68L238.25 11.68L238.25 11.68Q238.59 10.86 239.08 9.70L239.08 9.70L239.08 9.70Q239.30 9.18 239.46 8.79L239.46 8.79L239.46 8.79Q239.62 8.40 239.75 8.04L239.75 8.04L239.75 8.04Q239.88 7.69 239.98 7.33L239.98 7.33L239.98 7.33Q240.09 6.97 240.20 6.51L240.20 6.51L240.20 6.51Q239.55 6.73 239.00 7.01L239.00 7.01L239.00 7.01Q238.45 7.28 238.08 7.59L238.08 7.59L238.08 7.59Q237.96 7.50 237.83 7.34L237.83 7.34L237.83 7.34Q237.69 7.17 237.58 6.96L237.58 6.96L237.58 6.96Q237.47 6.76 237.38 6.55L237.38 6.55L237.38 6.55Q237.30 6.34 237.29 6.17L237.29 6.17L237.29 6.17Q237.71 5.89 238.32 5.66L238.32 5.66L238.32 5.66Q238.92 5.42 239.61 5.24L239.61 5.24L239.61 5.24Q240.30 5.07 241.01 4.97L241.01 4.97L241.01 4.97Q241.72 4.87 242.34 4.87L242.34 4.87L242.34 4.87Q244.02 4.87 244.94 5.56L244.94 5.56L244.94 5.56Q245.87 6.26 245.87 7.46ZM242.28 6.02L242.45 6.29L242.45 6.29Q242.35 6.41 242.14 6.79L242.14 6.79L242.14 6.79Q241.93 7.17 241.66 7.69L241.66 7.69L241.66 7.69Q241.39 8.22 241.09 8.83L241.09 8.83L241.09 8.83Q240.79 9.45 240.51 10.05L240.51 10.05L240.51 10.05Q241.56 10.05 242.44 9.86L242.44 9.86L242.44 9.86Q243.32 9.66 243.96 9.30L243.96 9.30L243.96 9.30Q244.61 8.95 244.97 8.46L244.97 8.46L244.97 8.46Q245.32 7.98 245.32 7.39L245.32 7.39L245.32 7.39Q245.32 6.69 244.82 6.32L244.82 6.32L244.82 6.32Q244.31 5.95 243.26 5.95L243.26 5.95L243.26 5.95Q243.03 5.95 242.79 5.97L242.79 5.97L242.79 5.97Q242.55 5.99 242.28 6.02L242.28 6.02Z"></path></g></svg>